<svg width="1950" height="1874" xmlns="http://www.w3.org/2000/svg" xmlns:xlink="http://www.w3.org/1999/xlink" xml:space="preserve" overflow="hidden"><defs><clipPath id="clip0"><rect x="1303" y="293" width="1950" height="1874"/></clipPath></defs><g clip-path="url(#clip0)" transform="translate(-1303 -293)"><rect x="1303" y="293" width="1950" height="1874"/><path d="M1737 1317 2253.91 812 2663 1059.74 1737 1317Z" stroke="#FFFFFF" stroke-width="13.75" stroke-miterlimit="8" fill="none" fill-rule="evenodd"/><path d="M0 0 46.5385 412.5" stroke="#FF0000" stroke-width="13.75" stroke-miterlimit="8" fill="none" fill-rule="evenodd" transform="matrix(1 0 0 -1 2254 812.5)"/><path d="M1736.73 1317.16 1520 917" stroke="#FF0000" stroke-width="13.75" stroke-miterlimit="8" fill="none" fill-rule="evenodd"/><path d="M3092.42 1443.94 2663 1060" stroke="#FF0000" stroke-width="13.75" stroke-miterlimit="8" fill="none" fill-rule="evenodd"/><path d="M0 0 429.423 495" stroke="#FF0000" stroke-width="13.75" stroke-miterlimit="8" fill="none" fill-rule="evenodd" transform="matrix(1 0 0 -1 2663 1060)"/><path d="M9.88709-2.9314 168.628 532.472 148.854 538.335-9.88709 2.9314ZM185.47 516.722 173.398 584.839 126.148 534.311Z" fill="#00B050" transform="matrix(-1 0 0 1 1736.9 1317.5)"/><path d="M1557.74 1605.65 1560.13 1605.65 1550.16 1650.51C1549.57 1653.19 1549.27 1655.19 1549.27 1656.51 1549.27 1657.59 1549.45 1658.37 1549.8 1658.86 1550.15 1659.35 1550.7 1659.59 1551.46 1659.59 1552.27 1659.59 1553.13 1659.26 1554.05 1658.6 1554.97 1657.93 1556.27 1656.67 1557.94 1654.81L1560.25 1657.08C1557.63 1659.83 1555.49 1661.72 1553.83 1662.73 1552.17 1663.74 1550.31 1664.25 1548.26 1664.25 1546.5 1664.25 1545.1 1663.61 1544.04 1662.33 1542.99 1661.04 1542.46 1659.4 1542.46 1657.4 1542.46 1655.59 1542.84 1652.97 1543.6 1649.54L1550.85 1617.08C1551.18 1615.64 1551.41 1614.5 1551.54 1613.65 1551.68 1612.8 1551.74 1612.01 1551.74 1611.28 1551.74 1610.47 1551.59 1609.86 1551.3 1609.44 1551 1609.02 1550.57 1608.71 1550.02 1608.53 1549.47 1608.34 1548.47 1608.2 1547.04 1608.12L1547.53 1606.01Z" fill="#FFFFFF" fill-rule="evenodd"/><text fill="#000000" fill-opacity="0" font-family="Arial,Arial_MSFontService,sans-serif" font-size="58.6025" x="1542.46" y="1656.93">𝑙</text><path d="M1576.95 1650.33 1578.41 1650.33 1574 1670.17C1573.72 1671.34 1573.53 1672.27 1573.42 1672.97 1573.31 1673.66 1573.25 1674.29 1573.25 1674.85 1573.25 1675.6 1573.41 1676.15 1573.72 1676.48 1574.02 1676.82 1574.49 1676.99 1575.1 1676.99 1575.46 1676.99 1575.82 1676.92 1576.17 1676.78 1576.53 1676.64 1576.91 1676.42 1577.32 1676.13 1577.73 1675.83 1578.17 1675.45 1578.66 1674.98 1579.15 1674.51 1579.69 1673.95 1580.28 1673.3L1582.31 1675.26C1581.28 1676.32 1580.34 1677.2 1579.49 1677.93 1578.65 1678.65 1577.85 1679.24 1577.1 1679.7 1576.34 1680.16 1575.6 1680.49 1574.88 1680.68 1574.15 1680.88 1573.38 1680.98 1572.57 1680.98 1571.81 1680.98 1571.13 1680.84 1570.53 1680.56 1569.92 1680.29 1569.4 1679.9 1568.97 1679.42 1568.53 1678.93 1568.19 1678.35 1567.95 1677.68 1567.71 1677 1567.6 1676.26 1567.6 1675.44 1567.6 1674.79 1567.67 1673.97 1567.83 1673 1567.99 1672.03 1568.2 1670.97 1568.44 1669.83 1568.69 1668.69 1568.97 1667.49 1569.26 1666.24 1569.56 1664.99 1569.85 1663.75 1570.14 1662.52 1570.43 1661.28 1570.69 1660.1 1570.92 1658.96 1571.14 1657.81 1571.31 1656.78 1571.41 1655.84 1571.45 1655.68 1571.47 1655.53 1571.47 1655.38 1571.47 1655.23 1571.47 1655.1 1571.47 1654.98 1571.43 1654.2 1571.15 1653.64 1570.65 1653.28 1570.14 1652.92 1569.24 1652.73 1567.95 1652.69L1568.31 1650.66ZM1575.22 1638.33 1581.18 1638.33 1579.72 1644.73 1573.82 1644.73Z" fill="#FFFFFF" fill-rule="evenodd"/><text fill="#000000" fill-opacity="0" font-family="Arial,Arial_MSFontService,sans-serif" font-size="42.6523" x="1567.6" y="1675.65">𝑖</text><path d="M6.875-1.23057e-05 6.8753 167.25-6.8747 167.25-6.875 1.23057e-05ZM20.6253 160.375 0.000360892 201.625-20.6247 160.375Z" fill="#FFFFFF" transform="matrix(1 0 0 -1 2158 1054.62)"/><path d="M2.11699-6.54095 139.348 37.8741 135.114 50.956-2.11699 6.54095ZM137.041 22.6752 169.936 55 124.339 61.9209Z" fill="#FFFFFF" transform="matrix(-1 0 0 1 2157.94 1055)"/><path d="M2161.73 1049.23 2228.41 1092.35 2220.95 1103.89 2154.27 1060.77ZM2230.11 1077.07 2253.54 1116.79 2207.71 1111.71Z" fill="#FFFFFF"/><path d="M2249.61 968.266C2247.94 968.266 2246.18 968.306 2244.34 968.387L2238.83 992.947 2243.05 992.947C2246.32 992.947 2248.96 992.609 2250.97 991.934 2252.98 991.258 2254.63 990.211 2255.91 988.793 2257.2 987.374 2258.19 985.692 2258.89 983.747 2259.6 981.802 2259.95 979.667 2259.95 977.344 2259.95 974.21 2259.15 971.913 2257.56 970.454 2255.96 968.995 2253.31 968.266 2249.61 968.266ZM2232.63 964.699 2250.5 964.699C2253.72 964.699 2256.36 964.949 2258.43 965.449 2260.49 965.949 2262.2 966.719 2263.53 967.759 2264.87 968.799 2265.87 970.116 2266.53 971.71 2267.19 973.304 2267.53 975.155 2267.53 977.263 2267.53 981.315 2266.57 984.828 2264.65 987.8 2262.73 990.772 2260.13 992.96 2256.85 994.365 2253.56 995.77 2249.63 996.473 2245.03 996.473 2242.28 996.473 2239.98 996.419 2238.14 996.31L2235.55 1008.23C2235.31 1009.33 2235.14 1010.18 2235.04 1010.78 2234.95 1011.37 2234.87 1012.01 2234.8 1012.7 2234.73 1013.39 2234.7 1014.01 2234.7 1014.55 2234.7 1015.39 2234.83 1016.04 2235.1 1016.51 2235.37 1016.99 2235.78 1017.33 2236.32 1017.55 2236.86 1017.76 2237.79 1017.93 2239.12 1018.03L2238.67 1020.02 2222.01 1020.02 2222.46 1018.03C2223.49 1017.87 2224.26 1017.61 2224.77 1017.24 2225.28 1016.88 2225.72 1016.37 2226.07 1015.72 2226.42 1015.07 2226.74 1014.28 2227.04 1013.35 2227.34 1012.42 2227.78 1010.62 2228.38 1007.94L2235.27 976.736C2235.86 974.034 2236.16 971.9 2236.16 970.332 2236.16 969.009 2235.85 968.09 2235.23 967.577 2234.6 967.063 2233.59 966.766 2232.19 966.685Z" fill="#FFFFFF" fill-rule="evenodd"/><text fill="#000000" fill-opacity="0" font-family="Arial,Arial_MSFontService,sans-serif" font-size="55.3198" x="2222.01" y="1013.1">𝑃</text><path d="M6.875-1.23057e-05 6.8753 167.25-6.8747 167.25-6.875 1.23057e-05ZM20.6253 160.375 0.000360892 201.625-20.6247 160.375Z" fill="#FFFFFF" transform="matrix(1 0 0 -1 2393 1980.62)"/><path d="M2.11699-6.54095 139.348 37.8741 135.114 50.956-2.11699 6.54095ZM137.041 22.6752 169.936 55 124.339 61.9209Z" fill="#FFFFFF" transform="matrix(-1 0 0 1 2392.94 1980)"/><path d="M2396.73 1974.23 2463.41 2017.35 2455.95 2028.89 2389.27 1985.77ZM2465.11 2002.07 2488.54 2041.79 2442.71 2036.71Z" fill="#FFFFFF"/><path d="M2472 1918.33 2466.97 1941.55C2468.62 1941.66 2470.65 1941.71 2473.05 1941.71 2477.16 1941.71 2480.25 1941.25 2482.31 1940.31 2484.38 1939.38 2486.16 1937.73 2487.64 1935.35 2489.13 1932.97 2489.87 1930.04 2489.87 1926.56 2489.87 1923.83 2488.97 1921.77 2487.18 1920.4 2485.38 1919.02 2482.7 1918.33 2479.13 1918.33ZM2484 1893.53C2481.64 1893.53 2479.46 1893.57 2477.43 1893.65L2472.85 1914.76 2478.56 1914.76C2481.75 1914.76 2484.29 1914.51 2486.16 1913.99 2488.04 1913.48 2489.7 1912.56 2491.13 1911.24 2492.56 1909.91 2493.6 1908.46 2494.25 1906.88 2494.9 1905.3 2495.22 1903.47 2495.22 1901.39 2495.22 1900.23 2495.02 1899.14 2494.61 1898.13 2494.21 1897.11 2493.51 1896.25 2492.53 1895.53 2491.54 1894.82 2490.41 1894.3 2489.12 1893.99 2487.84 1893.68 2486.13 1893.53 2484 1893.53ZM2465.8 1889.96 2485.86 1889.96C2489.91 1889.96 2493.16 1890.38 2495.61 1891.24 2498.05 1892.09 2499.85 1893.34 2501 1894.98 2502.14 1896.63 2502.72 1898.7 2502.72 1901.19 2502.72 1904.72 2501.64 1907.81 2499.48 1910.45 2497.32 1913.08 2494.1 1915.1 2489.83 1916.5L2489.75 1916.95C2492.26 1917.95 2494.19 1919.38 2495.55 1921.23 2496.9 1923.08 2497.57 1925.18 2497.57 1927.53 2497.57 1931.12 2496.75 1934.19 2495.1 1936.75 2493.45 1939.3 2490.98 1941.36 2487.68 1942.93 2484.39 1944.5 2479.56 1945.28 2473.22 1945.28L2455.18 1945.28 2455.63 1943.29C2456.65 1943.13 2457.42 1942.87 2457.94 1942.5 2458.45 1942.14 2458.88 1941.63 2459.23 1940.98 2459.58 1940.33 2459.91 1939.54 2460.21 1938.61 2460.5 1937.68 2460.95 1935.88 2461.54 1933.2L2468.43 1902C2469.03 1899.29 2469.32 1897.16 2469.32 1895.59 2469.32 1894.27 2469.01 1893.35 2468.39 1892.84 2467.77 1892.32 2466.76 1892.03 2465.35 1891.95Z" fill="#FFFFFF" fill-rule="evenodd"/><text fill="#000000" fill-opacity="0" font-family="Arial,Arial_MSFontService,sans-serif" font-size="55.3198" x="2455.18" y="1938.36">𝐵</text><path d="M5.4406-8.76056 383.304 225.905 372.423 243.426-5.4406 8.76056ZM385.425 202.944 421.666 261.869 352.781 255.507Z" fill="#00B050" transform="matrix(-1 0 0 1 2159.17 1055.5)"/><path d="M2383.51 1983.3 2161.2 1108.01 2181.19 1102.94 2403.5 1978.22ZM2143.75 1123.09 2158.5 1055.5 2203.72 1107.86Z" fill="#00B050"/><path d="M2392.59 1991.32 1613.86 1917.62 1615.81 1897.09 2394.54 1970.79ZM1622.18 1939.13 1563.5 1902.5 1628.01 1877.53Z" fill="#00B050"/><path d="M1825.68 1123.42C1824.3 1123.42 1822.95 1123.88 1821.61 1124.81 1820.27 1125.75 1818.8 1127.24 1817.21 1129.29 1815.62 1131.35 1814.37 1133.37 1813.48 1135.37 1812.59 1137.37 1811.89 1139.67 1811.37 1142.26L1811.05 1143.96C1810.78 1145.4 1810.61 1146.49 1810.54 1147.25 1810.48 1148 1810.44 1148.75 1810.44 1149.48 1810.44 1151.58 1810.9 1153.12 1811.8 1154.08 1812.71 1155.03 1814.27 1155.51 1816.48 1155.51 1817.86 1155.51 1819.13 1155.24 1820.29 1154.7 1821.45 1154.16 1822.55 1153.38 1823.59 1152.35 1824.63 1151.33 1825.57 1150.08 1826.41 1148.62 1827.25 1147.17 1828 1145.47 1828.66 1143.54 1829.32 1141.61 1829.82 1139.62 1830.16 1137.58 1830.5 1135.54 1830.67 1133.63 1830.67 1131.85 1830.67 1129.01 1830.27 1126.9 1829.47 1125.5 1828.67 1124.11 1827.41 1123.42 1825.68 1123.42ZM1808.62 1118.63C1810.29 1118.63 1811.62 1119.19 1812.61 1120.3 1813.6 1121.4 1814.09 1122.88 1814.09 1124.71 1814.09 1126.23 1813.78 1127.82 1813.16 1129.5L1813.64 1129.66C1818.64 1122.34 1823.61 1118.67 1828.56 1118.67 1831.5 1118.67 1833.79 1119.8 1835.43 1122.04 1837.06 1124.28 1837.88 1127.44 1837.88 1131.52 1837.88 1135.98 1836.98 1140.36 1835.18 1144.67 1833.39 1148.98 1830.9 1152.4 1827.71 1154.93 1824.52 1157.45 1820.95 1158.72 1817.01 1158.72 1813.41 1158.72 1810.43 1157.93 1808.05 1156.37L1806.19 1165.24C1805.78 1167.16 1805.58 1168.74 1805.58 1169.98 1805.58 1171.17 1805.88 1172.02 1806.49 1172.52 1807.1 1173.02 1808.28 1173.35 1810.04 1173.51L1809.71 1175.49 1797.19 1175.49 1806.96 1132.49C1807.52 1130.01 1807.81 1127.97 1807.81 1126.38 1807.81 1125.29 1807.63 1124.51 1807.28 1124.02 1806.93 1123.54 1806.38 1123.3 1805.62 1123.3 1804.78 1123.3 1803.9 1123.64 1802.97 1124.33 1802.03 1125.02 1800.76 1126.27 1799.14 1128.08L1796.83 1125.81C1799.26 1123.27 1801.32 1121.44 1803.01 1120.32 1804.69 1119.2 1806.57 1118.63 1808.62 1118.63Z" fill="#FFFFFF" fill-rule="evenodd"/><text fill="#000000" fill-opacity="0" font-family="Arial,Arial_MSFontService,sans-serif" font-size="56.8599" x="1796.83" y="1168.39">𝑝</text><path d="M1853.37 1144.8 1854.83 1144.8 1850.42 1164.64C1850.14 1165.81 1849.95 1166.74 1849.84 1167.44 1849.73 1168.13 1849.68 1168.76 1849.68 1169.31 1849.68 1170.07 1849.83 1170.61 1850.14 1170.95 1850.45 1171.29 1850.91 1171.46 1851.52 1171.46 1851.88 1171.46 1852.24 1171.39 1852.6 1171.25 1852.95 1171.11 1853.34 1170.89 1853.74 1170.59 1854.15 1170.29 1854.6 1169.91 1855.08 1169.45 1855.57 1168.98 1856.11 1168.42 1856.71 1167.76L1858.73 1169.73C1857.7 1170.78 1856.76 1171.67 1855.92 1172.39 1855.07 1173.12 1854.27 1173.71 1853.52 1174.17 1852.76 1174.62 1852.03 1174.95 1851.3 1175.15 1850.58 1175.35 1849.81 1175.45 1848.99 1175.45 1848.24 1175.45 1847.56 1175.31 1846.95 1175.03 1846.35 1174.75 1845.82 1174.37 1845.39 1173.88 1844.95 1173.4 1844.61 1172.82 1844.38 1172.14 1844.14 1171.47 1844.02 1170.72 1844.02 1169.91 1844.02 1169.25 1844.1 1168.44 1844.26 1167.46 1844.42 1166.49 1844.62 1165.43 1844.87 1164.29 1845.11 1163.15 1845.39 1161.95 1845.69 1160.7 1845.98 1159.45 1846.28 1158.21 1846.56 1156.98 1846.85 1155.75 1847.11 1154.56 1847.34 1153.42 1847.57 1152.28 1847.73 1151.24 1847.83 1150.31 1847.87 1150.15 1847.89 1150 1847.89 1149.85 1847.89 1149.7 1847.89 1149.56 1847.89 1149.44 1847.85 1148.67 1847.58 1148.1 1847.07 1147.75 1846.56 1147.39 1845.67 1147.19 1844.38 1147.15L1844.73 1145.13ZM1851.64 1132.8 1857.6 1132.8 1856.14 1139.2 1850.24 1139.2Z" fill="#FFFFFF" fill-rule="evenodd"/><text fill="#000000" fill-opacity="0" font-family="Arial,Arial_MSFontService,sans-serif" font-size="42.6523" x="1844.02" y="1170.12">𝑖</text><path d="M2217.23 1546.9C2218.94 1546.9 2220.28 1547.46 2221.27 1548.58 2222.25 1549.7 2222.75 1551.17 2222.75 1552.98 2222.75 1554.33 2222.49 1555.72 2221.98 1557.15L2222.5 1557.36C2225.15 1553.76 2227.7 1551.13 2230.14 1549.45 2232.59 1547.78 2235.07 1546.94 2237.58 1546.94 2239.55 1546.94 2241.2 1547.09 2242.52 1547.39L2240.58 1556.46 2236.4 1556.46C2236.24 1555.33 2236.01 1554.45 2235.71 1553.83 2235.42 1553.21 2235.07 1552.78 2234.66 1552.53 2234.25 1552.29 2233.74 1552.17 2233.12 1552.17 2232.15 1552.17 2231.09 1552.59 2229.94 1553.42 2228.79 1554.26 2227.5 1555.57 2226.07 1557.36 2224.64 1559.14 2223.49 1560.85 2222.64 1562.5 2221.79 1564.15 2221.08 1566.24 2220.52 1568.78L2216.67 1586.33 2209.65 1586.33 2215.53 1560.64C2215.91 1559.02 2216.15 1557.76 2216.26 1556.87 2216.37 1555.98 2216.42 1555.23 2216.42 1554.64 2216.42 1553.56 2216.25 1552.78 2215.9 1552.29 2215.54 1551.8 2214.99 1551.56 2214.23 1551.56 2213.4 1551.56 2212.51 1551.9 2211.58 1552.59 2210.65 1553.28 2209.37 1554.53 2207.75 1556.34L2205.44 1554.07C2207.93 1551.48 2210.01 1549.63 2211.68 1548.54 2213.36 1547.45 2215.21 1546.9 2217.23 1546.9Z" fill="#FFFFFF" fill-rule="evenodd"/><text fill="#000000" fill-opacity="0" font-family="Arial,Arial_MSFontService,sans-serif" font-size="39.4331" x="2205.44" y="1581.4">𝑟</text><path d="M1732.95 2041.7C1731.65 2041.7 1730.37 2042.11 1729.12 2042.93 1727.86 2043.76 1726.46 2045.12 1724.92 2047.03 1723.38 2048.93 1722.13 2050.88 1721.15 2052.88 1720.18 2054.88 1719.36 2057.43 1718.68 2060.54L1718.32 2062.24C1717.91 2064.14 1717.71 2065.97 1717.71 2067.76 1717.71 2069.89 1718.17 2071.43 1719.11 2072.38 1720.04 2073.32 1721.58 2073.79 1723.75 2073.79 1724.85 2073.79 1725.91 2073.61 1726.91 2073.25 1727.91 2072.88 1728.93 2072.28 1729.97 2071.44 1731.01 2070.61 1731.99 2069.51 1732.93 2068.14 1733.86 2066.78 1734.72 2065.09 1735.5 2063.09 1736.28 2061.1 1736.89 2058.95 1737.32 2056.67 1737.76 2054.39 1737.97 2052.21 1737.97 2050.13 1737.97 2047.32 1737.57 2045.21 1736.78 2043.8 1735.98 2042.4 1734.7 2041.7 1732.95 2041.7ZM1725.85 2018.39 1728.2 2018.39 1721.07 2046.76 1721.6 2046.92C1724.22 2043.41 1726.68 2040.87 1728.97 2039.31 1731.27 2037.74 1733.57 2036.95 1735.86 2036.95 1738.81 2036.95 1741.1 2038.08 1742.73 2040.32 1744.37 2042.56 1745.19 2045.72 1745.19 2049.8 1745.19 2054.26 1744.29 2058.64 1742.49 2062.95 1740.69 2067.26 1738.2 2070.68 1735.01 2073.21 1731.82 2075.73 1728.26 2077 1724.31 2077 1720.72 2077 1717.53 2076.12 1714.75 2074.36L1711.02 2077 1708.43 2076.35 1718.92 2030.02C1719.55 2027.27 1719.86 2025.27 1719.86 2024.03 1719.86 2022.89 1719.51 2022.09 1718.82 2021.64 1718.13 2021.18 1716.9 2020.92 1715.11 2020.87L1715.6 2018.76Z" fill="#FFFFFF" fill-rule="evenodd"/><text fill="#000000" fill-opacity="0" font-family="Arial,Arial_MSFontService,sans-serif" font-size="58.6025" x="1708.43" y="2069.67">𝑏</text><path d="M1761.07 2063.08 1762.53 2063.08 1758.12 2082.92C1757.84 2084.09 1757.65 2085.02 1757.54 2085.72 1757.43 2086.41 1757.38 2087.04 1757.38 2087.59 1757.38 2088.35 1757.53 2088.89 1757.84 2089.23 1758.15 2089.57 1758.61 2089.74 1759.22 2089.74 1759.58 2089.74 1759.94 2089.67 1760.3 2089.53 1760.65 2089.39 1761.04 2089.17 1761.44 2088.87 1761.85 2088.57 1762.3 2088.19 1762.78 2087.73 1763.27 2087.26 1763.81 2086.7 1764.41 2086.04L1766.43 2088.01C1765.4 2089.06 1764.46 2089.95 1763.62 2090.67 1762.77 2091.4 1761.97 2091.99 1761.22 2092.45 1760.46 2092.9 1759.73 2093.23 1759 2093.43 1758.28 2093.63 1757.51 2093.73 1756.69 2093.73 1755.94 2093.73 1755.26 2093.59 1754.65 2093.31 1754.05 2093.03 1753.52 2092.65 1753.09 2092.16 1752.65 2091.68 1752.31 2091.1 1752.08 2090.42 1751.84 2089.75 1751.72 2089 1751.72 2088.19 1751.72 2087.53 1751.8 2086.72 1751.96 2085.74 1752.11 2084.77 1752.32 2083.71 1752.57 2082.57 1752.81 2081.43 1753.09 2080.23 1753.39 2078.98 1753.68 2077.73 1753.98 2076.49 1754.26 2075.26 1754.55 2074.03 1754.81 2072.84 1755.04 2071.7 1755.27 2070.56 1755.43 2069.52 1755.53 2068.59 1755.57 2068.43 1755.59 2068.28 1755.59 2068.13 1755.59 2067.98 1755.59 2067.84 1755.59 2067.72 1755.55 2066.95 1755.28 2066.38 1754.77 2066.03 1754.26 2065.67 1753.37 2065.47 1752.08 2065.43L1752.43 2063.41ZM1759.34 2051.07 1765.3 2051.07 1763.84 2057.48 1757.94 2057.48Z" fill="#FFFFFF" fill-rule="evenodd"/><text fill="#000000" fill-opacity="0" font-family="Arial,Arial_MSFontService,sans-serif" font-size="42.6523" x="1751.72" y="2088.4">𝑖</text></g></svg>